<?xml version="1.0" encoding="UTF-8"?>
<svg width="14px" height="14px" viewBox="0 0 14 14" version="1.1" xmlns="http://www.w3.org/2000/svg" xmlns:xlink="http://www.w3.org/1999/xlink">
    <title>Solid/arrow-alt-circle-down</title>
    <defs>
        <path d="M14,0.583333333 L14,3.69405556 C14,4.21567708 13.3690278,4.47134722 13.0041771,4.10654514 L12.1362986,3.23861806 L6.21733681,9.15757986 C5.98952083,9.38539583 5.62019792,9.38539583 5.39238194,9.15757986 L4.84242014,8.60761806 C4.61460417,8.37980208 4.61460417,8.01045486 4.84242014,7.78266319 L10.7614306,1.86365278 L9.89364931,0.995822917 C9.52734028,0.629513889 9.78677778,2.04281037e-14 10.3061389,2.04281037e-14 L13.4166667,2.04281037e-14 C13.7388368,2.04281037e-14 14,0.261163194 14,0.583333333 Z M9.89306597,6.58179861 L9.50417708,6.9706875 C9.39477989,7.08008655 9.33332503,7.22846478 9.33333333,7.38317708 L9.33333333,10.8888889 L1.55555556,10.8888889 L1.55555556,3.11111111 L7.97222222,3.11111111 C8.12692398,3.11110229 8.27528835,3.04964954 8.3846875,2.94026736 L8.77357639,2.55137847 C9.14105208,2.18387847 8.88078819,1.55555556 8.36111111,1.55555556 L1.16666667,1.55555556 C0.522326389,1.55555556 0,2.07788194 0,2.72222222 L0,11.2777778 C0,11.9221181 0.522326389,12.4444444 1.16666667,12.4444444 L9.72222222,12.4444444 C10.3665625,12.4444444 10.8888889,11.9221181 10.8888889,11.2777778 L10.8888889,6.99426389 C10.8888889,6.4745625 10.2605417,6.21429861 9.89306597,6.58179861 Z" id="path-1"></path>
    </defs>
    <g id="Page-1" stroke="none" stroke-width="1" fill="none" fill-rule="evenodd">
        <g id="Events-Detail-v02" transform="translate(-588, -585)">
            <g id="Solid/arrow-alt-circle-down" transform="translate(588, 585.7778)">
                <mask id="mask-2" fill="white">
                    <use xlink:href="#path-1"></use>
                </mask>
                <g id="Mask"></g>
                <g id="🎨-color" mask="url(#mask-2)" fill="#FDC500">
                    <g transform="translate(0, -0.7778)" id="Black">
                        <rect x="0" y="0" width="14" height="14"></rect>
                    </g>
                </g>
            </g>
        </g>
    </g>
</svg>
