<?xml version="1.0" encoding="UTF-8"?>
<svg width="163px" height="76px" viewBox="0 0 163 76" role="img" version="1.1" xmlns="http://www.w3.org/2000/svg" xmlns:xlink="http://www.w3.org/1999/xlink">
    <title>twelve-factor-logo</title>
    <g id="Page-Designs-v3" stroke="none" stroke-width="1" fill="none" fill-rule="evenodd">
        <g id="Design---Home" transform="translate(-195, -30)">
            <g id="twelve-factor-logo" transform="translate(195, 30)">
                <g id="Group" fill="#430098">
                    <path d="M20.9,0 L41.8,34.3846328 L32.97944,48.0985 L36.86,53.0518644 L20.9,76 L4.94,53.0518644 L8.82056,48.0985 L0,34.3846328 L20.9,0 Z M31.36102,50.61486 L20.9,66.88 L10.5754,50.82728 L8.36,53.58 L20.9,71.44 L33.82,53.58 L31.36102,50.61486 Z M20.9,38 L12.98232,47.83744 L20.9,61.5900565 L28.9161,47.66644 L20.9,38 Z M20.9,10.579887 L5.58621469,34.9909056 L11.30614,44.92588 L20.9,32.68 L30.49386,44.92588 L36.2137853,34.9909056 L20.9,10.579887 Z" id="Shape"></path>
                </g>
                <g id="Twelve" transform="translate(47.2913, 7.457)" fill="#000000" fill-rule="nonzero">
                    <polygon id="Path" points="8.67450182 28.1540848 13.4302594 28.1540848 13.4302594 4.41334303 22.1047612 4.41334303 22.1047612 0 0 0 0 4.41334303 8.67450182 4.41334303"></polygon>
                    <path d="M27.7736242,28.1540848 L32.1108752,28.1540848 L35.763297,14.1150885 L35.8393891,14.1150885 L39.4918109,28.1540848 L43.8671079,28.1540848 L49.8783855,7.95162667 L45.6172267,7.95162667 L43.334463,16.4739442 C42.68768,18.6806158 42.3452655,20.1263661 41.7365285,22.7515442 L41.6604364,22.7515442 C41.0897455,20.1644121 40.7473309,18.6425697 40.1005479,16.3978521 L37.8558303,7.95162667 L34.0512242,7.95162667 L31.9206448,16.2456679 C31.2738618,18.5664776 30.9314473,20.0122279 30.3227103,22.7515442 L30.2466182,22.7515442 C29.7139733,20.1644121 29.3335127,18.6045236 28.7247758,16.32176 L26.5181042,7.95162667 L21.7623467,7.95162667 L27.7736242,28.1540848 Z" id="Path"></path>
                    <path d="M59.7323152,28.5725915 C63.3466909,28.5725915 66.1240533,27.2409794 68.2165867,24.9201697 L65.7435927,22.4852218 C64.2217503,23.9690182 62.6999079,24.8440776 60.0747297,24.8440776 C57.107137,24.8440776 54.8624194,23.246143 54.6721891,19.5937212 L68.4829091,19.5937212 L68.4829091,18.4903855 C68.4829091,10.2724364 64.1456582,7.57116606 59.618177,7.57116606 C55.4331103,7.57116606 49.9925236,10.3865745 49.9925236,18.0718788 C49.9925236,25.4908606 54.6721891,28.5725915 59.7323152,28.5725915 Z M54.7482812,16.0934836 C55.2048339,12.6693382 57.2973673,11.3757721 59.5801309,11.3757721 C62.3955394,11.3757721 63.9173818,13.0117527 64.1837042,16.0934836 L54.7482812,16.0934836 Z" id="Shape"></path>
                    <polygon id="Path" points="70.955903 28.1540848 75.6736145 28.1540848 75.6736145 0 70.955903 0"></polygon>
                    <polygon id="Path" points="84.3100703 28.1921309 89.0658279 28.1921309 96.3706715 7.95162667 91.8431903 7.95162667 86.9352485 22.8656824 86.8591564 22.8656824 81.9131685 7.95162667 77.0052267 7.95162667"></polygon>
                    <path d="M106.110463,28.5725915 C109.724839,28.5725915 112.502201,27.2409794 114.594735,24.9201697 L112.121741,22.4852218 C110.599898,23.9690182 109.078056,24.8440776 106.452878,24.8440776 C103.485285,24.8440776 101.240567,23.246143 101.050337,19.5937212 L114.861057,19.5937212 L114.861057,18.4903855 C114.861057,10.2724364 110.523806,7.57116606 105.996325,7.57116606 C101.811258,7.57116606 96.3706715,10.3865745 96.3706715,18.0718788 C96.3706715,25.4908606 101.050337,28.5725915 106.110463,28.5725915 Z M101.126429,16.0934836 C101.582982,12.6693382 103.675515,11.3757721 105.958279,11.3757721 C108.773687,11.3757721 110.29553,13.0117527 110.561852,16.0934836 L101.126429,16.0934836 Z" id="Shape"></path>
                </g>
                <g id="Factor" transform="translate(53.721, 40.3288)" fill="#000000" fill-rule="nonzero">
                    <polygon id="Path" points="0 28.1540848 4.75575758 28.1540848 4.75575758 16.1695758 14.1531345 16.1695758 14.1531345 11.946463 4.75575758 11.946463 4.75575758 4.41334303 17.7294642 4.41334303 17.7294642 0 0 0"></polygon>
                    <path d="M24.0070642,28.4584533 C27.012703,28.4584533 29.4096048,27.6594861 31.4640921,25.5669527 C31.4640921,26.7083345 31.6543224,27.3170715 31.9206448,28.1540848 L36.6383564,28.1540848 C36.2198497,27.1268412 36.0676655,25.6430448 36.0676655,23.208097 L36.0676655,14.8760097 C36.0676655,10.1582982 34.2034085,7.57116606 28.8008679,7.57116606 C24.6158012,7.57116606 21.2297018,9.24519273 19.0610764,11.2235879 L21.34384,14.1531345 C23.0559127,12.7834764 25.3386764,11.4138182 28.1540848,11.4138182 C30.3988024,11.4138182 31.4640921,12.2888776 31.4640921,14.3053188 L31.4640921,14.9140558 C22.0286691,15.9793455 18.3001552,18.9088921 18.3001552,23.2841891 C18.3001552,26.6322424 20.735103,28.4584533 24.0070642,28.4584533 Z M25.719137,24.8440776 C24.0070642,24.8440776 22.9037285,24.0070642 22.9037285,22.4091297 C22.9037285,20.2024582 25.8713212,18.8328 31.4640921,18.0718788 L31.4640921,22.5232679 C29.9802958,23.9309721 28.1160388,24.8440776 25.719137,24.8440776 Z" id="Shape"></path>
                    <path d="M47.5575758,28.5725915 C52.4274715,28.5725915 54.8243733,25.8713212 56.2701236,22.6374061 L52.3894255,21.2297018 C51.2860897,24.0831564 49.8022933,24.7299394 47.6717139,24.7299394 C44.589983,24.7299394 42.8398642,22.3710836 42.8398642,18.0718788 C42.8398642,13.2400291 45.0845818,11.4899103 47.7478061,11.4899103 C49.9925236,11.4899103 51.4382739,12.5932461 52.2372412,14.8760097 L56.1940315,13.4683055 C54.9765576,10.3485285 52.8459782,7.57116606 47.8238982,7.57116606 C43.334463,7.57116606 38.1221527,10.3485285 38.1221527,18.0718788 C38.1221527,25.4528145 42.8779103,28.5725915 47.5575758,28.5725915 Z" id="Path"></path>
                    <path d="M66.0099152,28.4204073 C67.189343,28.4204073 68.9394618,28.268223 69.4340606,28.1540848 L69.4340606,24.463617 C68.9775079,24.6158012 68.1024485,24.7299394 67.4176194,24.7299394 C65.0968097,24.7299394 64.4500267,23.85488 64.4500267,21.6862545 L64.4500267,11.6801406 L69.662337,11.6801406 L69.662337,7.95162667 L64.4500267,7.95162667 L64.4500267,0.913105455 L59.7703612,0.913105455 L59.7703612,7.95162667 L56.2701236,7.95162667 L56.2701236,11.6801406 L59.7703612,11.6801406 L59.7703612,22.8656824 C59.7703612,26.5181042 60.873697,28.4204073 66.0099152,28.4204073 Z" id="Path"></path>
                    <path d="M80.3913261,28.5725915 C85.2992679,28.5725915 90.2452558,25.4528145 90.2452558,18.0718788 C90.2452558,10.6148509 85.2992679,7.57116606 80.3913261,7.57116606 C75.4453382,7.57116606 70.5373964,10.6148509 70.5373964,18.0718788 C70.5373964,25.4528145 75.4833842,28.5725915 80.3913261,28.5725915 Z M80.3913261,24.6538473 C76.8149964,24.6538473 75.2551079,21.9145309 75.2551079,18.0718788 C75.2551079,14.0009503 77.0052267,11.5660024 80.3913261,11.5660024 C83.9296097,11.5660024 85.5275442,14.3053188 85.5275442,18.0718788 C85.5275442,22.2188994 83.7774255,24.6538473 80.3913261,24.6538473 Z" id="Shape"></path>
                    <path d="M92.5280194,28.1540848 L97.2076848,28.1540848 L97.2076848,15.3706085 C98.539297,13.201983 100.4416,11.7942788 103.447239,11.7942788 C103.713561,11.7942788 104.474482,11.8323248 104.702759,11.8703709 L104.854943,7.57116606 L104.550575,7.57116606 C100.707922,7.57116606 98.539297,9.24519273 97.283777,11.2616339 L97.2076848,11.2616339 L97.2076848,7.95162667 L92.5280194,7.95162667 L92.5280194,28.1540848 Z" id="Path"></path>
                </g>
            </g>
        </g>
    </g>
</svg>
