<?xml version="1.0" encoding="UTF-8"?>
<svg width="173px" height="81px" viewBox="0 0 173 81" version="1.1" role="img" xmlns="http://www.w3.org/2000/svg" xmlns:xlink="http://www.w3.org/1999/xlink">
    <title>twelve-factor-logo-white</title>
    <g id="Page-Designs-v3" stroke="none" stroke-width="1" fill="none" fill-rule="evenodd">
        <g id="Design---Home" transform="translate(-195, -4300)">
            <g id="Footer" transform="translate(0, 3928)">
                <g id="twelve-factor-logo-white" transform="translate(195, 372)">
                    <g id="Group" fill="#6E00F9">
                        <path d="M22.0108696,0 L44.0217391,36.6467797 L34.7323518,51.262875 L38.81917,56.5421186 L22.0108696,81 L5.20256917,56.5421186 L9.28938735,51.262875 L0,36.6467797 L22.0108696,0 Z M33.0279101,53.944785 L22.0108696,71.28 L11.1375,54.17118 L8.80434783,57.105 L22.0108696,76.14 L35.6175889,57.105 L33.0279101,53.944785 Z M22.0108696,40.5 L13.6723518,50.98464 L22.0108696,65.6420339 L30.4530385,50.80239 L22.0108696,40.5 Z M22.0108696,11.2759322 L5.88313124,37.2929388 L11.90708,47.88153 L22.0108696,34.83 L32.1146591,47.88153 L38.1386079,37.2929388 L22.0108696,11.2759322 Z" id="Shape"></path>
                    </g>
                    <g id="Twelve" transform="translate(49.3043, 8.8043)" fill="#FFFFFF" fill-rule="nonzero">
                        <polygon id="Path" points="9.30886991 29.4963237 14.412417 29.4963237 14.412417 4.62374805 23.7212869 4.62374805 23.7212869 0 0 0 0 4.62374805 9.30886991 4.62374805"></polygon>
                        <path d="M29.8047151,29.4963237 L34.45915,29.4963237 L38.3786742,14.7880218 L38.4603309,14.7880218 L42.3798551,29.4963237 L47.0751185,29.4963237 L53.526002,8.33071846 L48.9532238,8.33071846 L46.5035212,17.2593354 C45.8094388,19.5712094 45.4419834,21.0858855 44.7887294,23.8362184 L44.7070726,23.8362184 C44.0946469,21.1257454 43.7271916,19.5313495 43.0331091,17.1796156 L40.6242349,8.33071846 L36.5413972,8.33071846 L34.2550081,17.020176 C33.5609257,19.4516297 33.1934703,20.9663058 32.5402163,23.8362184 L32.4585596,23.8362184 C31.8869623,21.1257454 31.4786785,19.4914896 30.8254245,17.0998958 L28.4573786,8.33071846 L23.3538315,8.33071846 L29.8047151,29.4963237 Z" id="Path"></path>
                        <path d="M64.1005516,29.9347826 C67.9792474,29.9347826 70.9597189,28.5396862 73.2052796,26.1082325 L70.5514351,23.5571991 C68.9183,25.1117351 67.285165,26.0285127 64.468007,26.0285127 C61.2833936,26.0285127 58.8745193,24.354397 58.6703775,20.5278469 L73.4910782,20.5278469 L73.4910782,19.3719099 C73.4910782,10.7621722 68.8366433,7.93211949 63.9780664,7.93211949 C59.486945,7.93211949 53.6484871,10.8817519 53.6484871,18.9334511 C53.6484871,26.706131 58.6703775,29.9347826 64.1005516,29.9347826 Z M58.7520342,16.8607364 C59.2419747,13.2733457 61.4875355,11.9181092 63.9372381,11.9181092 C66.958538,11.9181092 68.591673,13.6320848 68.8774717,16.8607364 L58.7520342,16.8607364 Z" id="Shape"></path>
                        <polygon id="Path" points="76.1449227 29.4963237 81.2076415 29.4963237 81.2076415 0 76.1449227 0"></polygon>
                        <polygon id="Path" points="90.475683 29.5361836 95.5792301 29.5361836 103.418278 8.33071846 98.5597016 8.33071846 93.292841 23.9557981 93.2111842 23.9557981 87.9034953 8.33071846 82.6366346 8.33071846"></polygon>
                        <path d="M113.870343,29.9347826 C117.749039,29.9347826 120.72951,28.5396862 122.975071,26.1082325 L120.321226,23.5571991 C118.688091,25.1117351 117.054956,26.0285127 114.237798,26.0285127 C111.053185,26.0285127 108.644311,24.354397 108.440169,20.5278469 L123.26087,20.5278469 L123.26087,19.3719099 C123.26087,10.7621722 118.606435,7.93211949 113.747858,7.93211949 C109.256736,7.93211949 103.418278,10.8817519 103.418278,18.9334511 C103.418278,26.706131 108.440169,29.9347826 113.870343,29.9347826 Z M108.521826,16.8607364 C109.011766,13.2733457 111.257327,11.9181092 113.707029,11.9181092 C116.728329,11.9181092 118.361464,13.6320848 118.647263,16.8607364 L108.521826,16.8607364 Z" id="Shape"></path>
                    </g>
                    <g id="Factor" transform="translate(58.1087, 44.0217)" fill="#FFFFFF" fill-rule="nonzero">
                        <polygon id="Path" points="0 29.4963237 5.03151227 29.4963237 5.03151227 16.9404562 14.9737805 16.9404562 14.9737805 12.5160076 5.03151227 12.5160076 5.03151227 4.62374805 18.7574778 4.62374805 18.7574778 0 0 0"></polygon>
                        <path d="M25.399074,29.8152029 C28.5789897,29.8152029 31.1148719,28.9781451 33.2884852,26.7858507 C33.2884852,27.9816477 33.4897457,28.619406 33.7715104,29.4963237 L38.7627706,29.4963237 C38.3199975,28.4201065 38.1589891,26.8655705 38.1589891,24.3145371 L38.1589891,15.5852197 C38.1589891,10.6425925 36.1866363,7.93211949 30.4708383,7.93211949 C26.0431075,7.93211949 22.4606708,9.68595496 20.1663012,11.7586696 L22.5814271,14.8278817 C24.3927715,13.3929254 26.8078974,11.9579691 29.7865527,11.9579691 C32.1614265,11.9579691 33.2884852,12.8747467 33.2884852,14.9873213 L33.2884852,15.6250796 C23.3059649,16.7411567 19.3612592,19.8103688 19.3612592,24.3942569 C19.3612592,27.9019279 21.9373935,29.8152029 25.399074,29.8152029 Z M27.2104184,26.0285127 C25.399074,26.0285127 24.2317631,25.151595 24.2317631,23.4774793 C24.2317631,21.1656053 27.3714268,19.730649 33.2884852,18.9334511 L33.2884852,23.597059 C31.7186534,25.0718752 29.7463006,26.0285127 27.2104184,26.0285127 Z" id="Shape"></path>
                        <path d="M50.3151227,29.9347826 C55.4673913,29.9347826 58.0032735,27.1047299 59.5328532,23.7166387 L55.4271392,22.2418225 C54.2598284,25.2313148 52.6899965,25.908933 50.435879,25.908933 C47.1754591,25.908933 45.3238626,23.4376194 45.3238626,18.9334511 C45.3238626,13.8712441 47.6987364,12.0376889 50.5163832,12.0376889 C52.891257,12.0376889 54.4208368,13.1936259 55.2661308,15.5852197 L59.452349,14.1104035 C58.1642819,10.841892 55.9101644,7.93211949 50.5968874,7.93211949 C45.8471398,7.93211949 40.3326024,10.841892 40.3326024,18.9334511 C40.3326024,26.6662711 45.3641147,29.9347826 50.3151227,29.9347826 Z" id="Path"></path>
                        <path d="M69.8373904,29.775343 C71.0852054,29.775343 72.9368019,29.6159034 73.4600792,29.4963237 L73.4600792,25.6299137 C72.977054,25.7893533 72.0512558,25.908933 71.326718,25.908933 C68.87134,25.908933 68.1870543,24.9921554 68.1870543,22.7201413 L68.1870543,12.2369884 L73.7015918,12.2369884 L73.7015918,8.33071846 L68.1870543,8.33071846 L68.1870543,0.956637527 L63.2360463,0.956637527 L63.2360463,8.33071846 L59.5328532,8.33071846 L59.5328532,12.2369884 L63.2360463,12.2369884 L63.2360463,23.9557981 C63.2360463,27.7823482 64.4033571,29.775343 69.8373904,29.775343 Z" id="Path"></path>
                        <path d="M85.0526835,29.9347826 C90.2452041,29.9347826 95.4779769,26.6662711 95.4779769,18.9334511 C95.4779769,11.1209112 90.2452041,7.93211949 85.0526835,7.93211949 C79.8199107,7.93211949 74.62739,11.1209112 74.62739,18.9334511 C74.62739,26.6662711 79.8601628,29.9347826 85.0526835,29.9347826 Z M85.0526835,25.8292132 C81.2689862,25.8292132 79.6186502,22.9593006 79.6186502,18.9334511 C79.6186502,14.6684421 81.4702467,12.1174087 85.0526835,12.1174087 C88.7961286,12.1174087 90.4867167,14.9873213 90.4867167,18.9334511 C90.4867167,23.2781798 88.6351202,25.8292132 85.0526835,25.8292132 Z" id="Shape"></path>
                        <path d="M97.8931028,29.4963237 L102.844111,29.4963237 L102.844111,16.1033984 C104.252934,13.8313842 106.265539,12.3565681 109.445455,12.3565681 C109.72722,12.3565681 110.532262,12.396428 110.773774,12.4362878 L110.934783,7.93211949 L110.612766,7.93211949 C106.547304,7.93211949 104.252934,9.68595496 102.924615,11.7985295 L102.844111,11.7985295 L102.844111,8.33071846 L97.8931028,8.33071846 L97.8931028,29.4963237 Z" id="Path"></path>
                    </g>
                </g>
            </g>
        </g>
    </g>
</svg>
